PathFileType	4	(X/Y/Z)	pose_F01_0-93.trc
DataRate	CameraRate	NumFrames	NumMarkers	Units	OrigDataRate	OrigDataStartFrame	OrigNumFrames
30	30	9	21	m	30	58	93
Frame#	Time	CHip			RHip			RKnee			RAnkle			RBigToe			RSmallToe			RHeel			LHip			LKnee			LAnkle			LBigToe			LSmallToe			LHeel			Neck			Nose			RShoulder			RElbow			RWrist			LShoulder			LElbow			LWrist			
		X1	Y1	Z1	X2	Y2	Z2	X3	Y3	Z3	X4	Y4	Z4	X5	Y5	Z5	X6	Y6	Z6	X7	Y7	Z7	X8	Y8	Z8	X9	Y9	Z9	X10	Y10	Z10	X11	Y11	Z11	X12	Y12	Z12	X13	Y13	Z13	X14	Y14	Z14	X15	Y15	Z15	X16	Y16	Z16	X17	Y17	Z17	X18	Y18	Z18	X19	Y19	Z19	X20	Y20	Z20	X21	Y21	Z21	
58	1.9333333333333333	-0.2714849090264804	1.8523264198099962	-0.5587333549909043	-0.29525426308414937	1.844217337633182	-0.502048401031968	-0.36336454274305724	1.6902614421987736	-0.49436991999435204	-0.3717341252261553	1.5584637166690738	-0.3917462473681093	-0.612447530621155	1.4965097305654886	-0.8837148153502998				-0.3626761105432263	1.5448171770326136	-0.37279087451397325	-0.24746276013144883	1.8576974053188224	-0.610120475166554	-0.22130851417411446	1.6924392037452092	-0.6157545738911919	-0.17198374219681165	1.5703709746308145	-0.5884896179687797	-0.3184906877888953	1.4817264539909998	-1.0922712801032421	-0.3040263288187035	1.4859470883015242	-1.1145073921867834	-0.1670733085697177	1.5636063065649517	-0.5711641396148094	-0.307824584408314	2.0267419215959768	-0.5680247143461423	-0.370614350476618	2.074887028683786	-0.6008503394488833	-0.33164835688733213	2.006812985122501	-0.4875863520920771	-0.30744801857020887	1.906229688394591	-0.447555066618381	-0.32282071848429217	1.8084671206033887	-0.44086241271736104	-0.2850815774040067	2.0433811804109303	-0.649240920104676	-0.3103670863330023	1.9943106146325604	-0.7376404337895506	-0.4194120499571077	1.9755445460327783	-0.7620883005770775
59	1.9666666666666666	-0.273311177081205	1.8500677548281352	-0.5647878627348891	-0.297205185167801	1.842901246308708	-0.5082168202462121	-0.3654635072128651	1.687583634495154	-0.4922088156051373	-0.3717341252261553	1.5584637166690738	-0.3917462473681093	-0.612447530621155	1.4965097305654886	-0.8837148153502998				-0.3626761105432263	1.5448171770326136	-0.37279087451397325	-0.25027518046404923	1.8572133329816516	-0.6194494031096841	-0.2220375118536585	1.6910104204972747	-0.6190529673207452	-0.17192355131083728	1.5703839425535737	-0.5884084334104087	-0.3175146619732098	1.4822975577851858	-1.0891717368345222	-0.30084752810000437	1.48794977549313	-1.1148081627904751	-0.1669610402454426	1.5633280470481004	-0.5711224733895407	-0.3108233107196213	2.030361289490196	-0.5697309833036177	-0.36723911588461744	2.077854610546234	-0.6076761275616592	-0.3305627144518684	2.0081345744551657	-0.49274855782622584	-0.306351756387088	1.9047660925459051	-0.4439748799444519	-0.3339293898698046	1.8178070798927706	-0.42927697331339026	-0.28623680981960015	2.044529816021312	-0.6439787877885581	-0.29651677500424084	2.013203336772473	-0.7537781047185915	-0.4278592888569031	1.9552576441114817	-0.7745004121547809
60	2.0	-0.2713899605237122	1.8550138530616946	-0.5591829124837675	-0.2952106000998437	1.8494726840246896	-0.5112728515840733	-0.36471469223315267	1.6847720575616942	-0.49730240103179474	-0.3717341252261553	1.5584637166690738	-0.3917462473681093	-0.612447530621155	1.4965097305654886	-0.8837148153502998				-0.3626761105432263	1.5448171770326136	-0.37279087451397325	-0.24633585686766	1.8592505685250627	-0.6071012336356355	-0.21686361574512564	1.6909819981490797	-0.6202912279169902	-0.17314452653824877	1.5660474964250921	-0.5907871225083181	-0.31300933169722556	1.4782903680380999	-1.095771596139409	-0.29846152983026003	1.4861690670754906	-1.1187224704323662	-0.16974628906177708	1.5551321962339648	-0.5669140953058278	-0.305541325509421	2.0320830600572988	-0.5708782014570064	-0.3617804223583392	2.0807034812315197	-0.6093476812019407	-0.3265165632856772	2.0095853634152543	-0.4970629704099831	-0.3152445440880645	1.9175286879265332	-0.45771424192441457	-0.35778830183774146	1.8394479548561724	-0.4298219030454943	-0.2838492757495034	2.047912600484423	-0.6461990923515586	-0.2919893165739716	2.020233700732877	-0.7590984105441347	-0.4363065277566985	1.9349707421901852	-0.7869125237324844
61	2.033333333333333	-0.27300638521758097	1.8549597701009106	-0.5654075113117397	-0.29582460443019626	1.8481873651574023	-0.5143790636763553	-0.36471469223315267	1.6847720575616942	-0.49730240103179474	-0.3717341252261553	1.5584637166690738	-0.3917462473681093	-0.612447530621155	1.4965097305654886	-0.8837148153502998				-0.3626761105432263	1.5448171770326136	-0.37279087451397325	-0.24619119974470316	1.8617367962514841	-0.6072535345406281	-0.21816467161392256	1.697525461345695	-0.6196333784775011	-0.16869254576548243	1.5692072722050099	-0.5877219478803595	-0.3106116713527956	1.4825302528873174	-1.1010142989859466	-0.29380649570247425	1.4887368732657462	-1.1266975112775413	-0.16572868489823991	1.5582737947330496	-0.5679375990132278	-0.30139507422791934	2.033912161340428	-0.5674499707253118	-0.3557775288086526	2.078401419135827	-0.6158064496637289	-0.32705957150713233	2.017433323304616	-0.5008182004408228	-0.3197932992261969	1.92344558603814	-0.45713557892522977	-0.3816472138056784	1.861088829819574	-0.43036683277759824	-0.27781886741981476	2.050998216840261	-0.6459367535287338	-0.30550843376595704	2.0080251758558916	-0.752278273596471	-0.4447537666564939	1.9146838402688886	-0.7993246353101878
62	2.066666666666667	-0.26994141144845885	1.8460751508608462	-0.563239396416708	-0.29495863929000304	1.8419646760213202	-0.5105896973243402	-0.36471469223315267	1.6847720575616942	-0.49730240103179474	-0.3717341252261553	1.5584637166690738	-0.3917462473681093	-0.612447530621155	1.4965097305654886	-0.8837148153502998				-0.3626761105432263	1.5448171770326136	-0.37279087451397325	-0.2438903733212697	1.8518012469177356	-0.6081412407291881	-0.21672756080145747	1.6926813706966677	-0.6289279403076417	-0.17172787516235316	1.5689848289682709	-0.5886803259220335	-0.31195798398225955	1.4816703911576372	-1.0946704302315395	-0.2950974621365094	1.4885576472100954	-1.1203378330152238	-0.16804291830998094	1.5565926116748898	-0.5651812414690595	-0.29950360121755204	2.033916572979313	-0.5699705694613111	-0.355863423527751	2.0763724937388957	-0.6153513895357269	-0.329523452055123	2.018779977558886	-0.5003370323673115	-0.32643287717809105	1.9237284381466655	-0.42878871476357466	-0.4055061257736153	1.8827297047829759	-0.43091176250970226	-0.26630001320261976	2.053160814858747	-0.6452323415913811	-0.31902755095794244	1.995816650978906	-0.7454581366488073	-0.4532010055562893	1.894396938347592	-0.8117367468878913
63	2.1	-0.271569785717449	1.8431695798966663	-0.5661419030148752	-0.29642204135014877	1.8399098778562093	-0.5133470145157005	-0.36471469223315267	1.6847720575616942	-0.49730240103179474	-0.3717341252261553	1.5584637166690738	-0.3917462473681093	-0.612447530621155	1.4965097305654886	-0.8837148153502998				-0.3626761105432263	1.5448171770326136	-0.37279087451397325	-0.2423793037469267	1.847742408905059	-0.6098975981581775	-0.21996721616776585	1.6931339760001873	-0.6343084736130644	-0.16872533541216594	1.566480429370784	-0.5873017152478432	-0.30980847869168177	1.4809995967872618	-1.0982104128659473	-0.29605821265301174	1.4872805454083822	-1.1234252376198866	-0.1647764345188206	1.5555746358520814	-0.5643152090119362	-0.3024786370496965	2.0309401647956626	-0.5617651510919959	-0.36367900833030836	2.0686200527532366	-0.6197037001677058	-0.34005137680821335	2.012792008729156	-0.5057506941786758	-0.323145385751565	1.9241624913402258	-0.41937914144428695	-0.4070407383146861	1.888672309836165	-0.4270662331181288	-0.2662205446401827	2.049737756379779	-0.6262092187553432	-0.33254666814992784	1.9836081261019205	-0.7386379997011437	-0.4616482444560847	1.8741100364262955	-0.8241488584655947
64	2.1333333333333333	-0.2750002598982179	1.8407064558055097	-0.5667057319481211	-0.29905230371404584	1.836350482942418	-0.5106525217910475	-0.36471469223315267	1.6847720575616942	-0.49730240103179474	-0.3717341252261553	1.5584637166690738	-0.3917462473681093	-0.6234681890741783	1.496415906325819	-0.8622878904340534				-0.3626761105432263	1.5448171770326136	-0.37279087451397325	-0.24795521305011983	1.8452531689242215	-0.616871997945971	-0.2219922845592751	1.6919559611666315	-0.6360412268164574	-0.17308285171139243	1.568962998834725	-0.5913192982727451	-0.30986246470018497	1.4820732574298503	-1.0990193880172332	-0.2960586605388988	1.489103275886897	-1.123113356641906	-0.16756416330327847	1.5607358746260018	-0.5700331418626642	-0.31455522104135153	2.025273674906095	-0.5715176842722859	-0.38285251791306163	2.059412141840897	-0.6156957262288879	-0.3499915323873239	2.008985417713044	-0.5094787235797469	-0.3168266337279611	1.9277458173059134	-0.42379049068354724	-0.3721182798380263	1.8733514180964617	-0.4008889782788283	-0.2744968313481224	2.041462650411312	-0.6239658691241017	-0.3460657853419133	1.971399601224935	-0.73181786275348	-0.4700954833558801	1.853823134504999	-0.8365609700432982
65	2.1666666666666665	-0.2812307913971103	1.8364800224498008	-0.559440354320824	-0.30329908639522246	1.8321422403343468	-0.5055313794680963	-0.36471469223315267	1.6847720575616942	-0.49730240103179474	-0.3717341252261553	1.5584637166690738	-0.3917462473681093	-0.6234681890741783	1.496415906325819	-0.8622878904340534				-0.3626761105432263	1.5448171770326136	-0.37279087451397325	-0.25629716660506235	1.8424607405202438	-0.6075215315840156	-0.22986665816108084	1.6883541227397911	-0.6317114538929182	-0.17499923930343356	1.5701590866960309	-0.5895402876639176	-0.18139847076905202	1.5267408446009458	-0.6391961026366487	-0.2951423282563091	1.4881850257827998	-1.1202039994356419	-0.16896073512914095	1.5592085310617532	-0.5687658172211376	-0.33381795181102564	2.0108515108280662	-0.5587691564464126	-0.420654223578281	2.0537377337216856	-0.6015735988913136	-0.3650005722105491	1.9949421161899874	-0.5013571112273113	-0.32578339008475743	1.9110182243534939	-0.429702988141623	-0.35149645145401015	1.8375618827805014	-0.381200755106162	-0.3013284626196472	2.029595625471565	-0.6171734850907952	-0.35958490253389874	1.9591910763479499	-0.7249977258058163	-0.4785427222556755	1.8335362325837024	-0.8489730816210016
66	2.2	-0.28725970094931197	1.8226525764015848	-0.5511750585834934	-0.30794968866000266	1.8193430448224943	-0.4942972150402101	-0.36471469223315267	1.6847720575616942	-0.49730240103179474	-0.3717341252261553	1.5584637166690738	-0.3917462473681093	-0.6234681890741783	1.496415906325819	-0.8622878904340534				-0.3626761105432263	1.5448171770326136	-0.37279087451397325	-0.2625586528771564	1.8276683754666962	-0.6075152025871773	-0.23253611665247007	1.6813990370951883	-0.6283089296580352	-0.1712166529511792	1.5690053449063701	-0.5846108862685953	-0.3097780302412738	1.4825557557634468	-1.0990357324409687	-0.2959960112594876	1.4880278019489912	-1.1234053961229993	-0.16566213983211217	1.5624209971898322	-0.5719061691934846	-0.3566559646321301	1.9942557717789522	-0.5640509426231031	-0.44671037330970687	2.03243001835617	-0.612727078348183	-0.3811812745720897	1.9834621331279019	-0.5046500030398264	-0.32757508750765785	1.8922390156547904	-0.4475080430687333	-0.3133393317051886	1.795647255739948	-0.41834009763832886	-0.33073586458039483	2.0046079193129027	-0.6231288670460037	-0.37310401972588414	1.9469825514709644	-0.7181775888581527	-0.4869899611554709	1.8132493306624058	-0.8613851931987051
